<?xml version="1.0" standalone="no"?>
<svg xmlns:xlink="http://www.w3.org/1999/xlink" id="wave" style="transform:rotate(0deg); transition: 0.3s" viewBox="0 0 1440 360" version="1.1" xmlns="http://www.w3.org/2000/svg"><defs><linearGradient id="sw-gradient-0" x1="0" x2="0" y1="1" y2="0"><stop stop-color="rgba(255, 255, 255, 1)" offset="0%"/><stop stop-color="rgba(255, 255, 255, 1)" offset="100%"/></linearGradient></defs><path style="transform:translate(0, 0px); opacity:1" fill="url(#sw-gradient-0)" d="M0,180L60,168C120,156,240,132,360,150C480,168,600,228,720,210C840,192,960,96,1080,90C1200,84,1320,168,1440,204C1560,240,1680,228,1800,240C1920,252,2040,288,2160,300C2280,312,2400,300,2520,282C2640,264,2760,240,2880,228C3000,216,3120,216,3240,192C3360,168,3480,120,3600,138C3720,156,3840,240,3960,276C4080,312,4200,300,4320,264C4440,228,4560,168,4680,126C4800,84,4920,60,5040,42C5160,24,5280,12,5400,42C5520,72,5640,144,5760,186C5880,228,6000,240,6120,222C6240,204,6360,156,6480,138C6600,120,6720,132,6840,150C6960,168,7080,192,7200,198C7320,204,7440,192,7560,204C7680,216,7800,252,7920,276C8040,300,8160,312,8280,312C8400,312,8520,300,8580,294L8640,288L8640,360L8580,360C8520,360,8400,360,8280,360C8160,360,8040,360,7920,360C7800,360,7680,360,7560,360C7440,360,7320,360,7200,360C7080,360,6960,360,6840,360C6720,360,6600,360,6480,360C6360,360,6240,360,6120,360C6000,360,5880,360,5760,360C5640,360,5520,360,5400,360C5280,360,5160,360,5040,360C4920,360,4800,360,4680,360C4560,360,4440,360,4320,360C4200,360,4080,360,3960,360C3840,360,3720,360,3600,360C3480,360,3360,360,3240,360C3120,360,3000,360,2880,360C2760,360,2640,360,2520,360C2400,360,2280,360,2160,360C2040,360,1920,360,1800,360C1680,360,1560,360,1440,360C1320,360,1200,360,1080,360C960,360,840,360,720,360C600,360,480,360,360,360C240,360,120,360,60,360L0,360Z"/></svg>